<svg id="fa-solid:brain" xmlns="http://www.w3.org/2000/svg" width="70" height="70" viewBox="0 0 70 70">
  <path id="Vector" d="M25.278,0c-3.634,0-6.648,2.8-7.51,6.59-.1,0-.17-.027-.267-.027-4.29,0-7.778,3.924-7.778,8.75a9.022,9.022,0,0,0,.207,1.914,11.014,11.014,0,0,0-6.04,10.117A12.078,12.078,0,0,0,4.9,32.115,11.172,11.172,0,0,0,0,41.563a11.022,11.022,0,0,0,6,10.1,11.231,11.231,0,0,0-.17,1.928c0,5.441,3.913,9.844,8.75,9.844a7.357,7.357,0,0,0,1.458-.164c1.167,3.9,4.4,6.727,8.264,6.727,4.837,0,8.75-4.4,8.75-9.844V8.75C33.056,3.924,29.568,0,25.278,0ZM70,41.563a11.172,11.172,0,0,0-4.9-9.447,11.87,11.87,0,0,0,1.009-4.771,11.014,11.014,0,0,0-6.04-10.117,9.888,9.888,0,0,0,.207-1.914c0-4.826-3.488-8.75-7.778-8.75-.1,0-.182.027-.267.027C51.37,2.8,48.356,0,44.722,0c-4.29,0-7.778,3.91-7.778,8.75V60.156c0,5.441,3.913,9.844,8.75,9.844,3.865,0,7.1-2.83,8.264-6.727a7.357,7.357,0,0,0,1.458.164c4.837,0,8.75-4.4,8.75-9.844A11.231,11.231,0,0,0,64,51.666,11.022,11.022,0,0,0,70,41.563Z" fill="#191919"/>
</svg>
