<svg xmlns="http://www.w3.org/2000/svg" width="69.979" height="69.979" viewBox="0 0 69.979 69.979">
  <g id="whh:coffeebean" transform="translate(-0.01 -0.01)">
    <path id="Vector" d="M63.3,62.007q-.614-3.07-7.573-11.667A246.943,246.943,0,0,0,38.5,31.476,246.942,246.942,0,0,0,19.639,14.249Q11.042,7.29,7.972,6.676A25.063,25.063,0,0,1,22.266.263,36.929,36.929,0,0,1,40.038,2.616,46.053,46.053,0,0,1,56.583,13.4a46.053,46.053,0,0,1,10.78,16.545,36.929,36.929,0,0,1,2.354,17.773A25.063,25.063,0,0,1,63.3,62.007ZM31.476,38.5A246.943,246.943,0,0,0,50.341,55.73q8.6,6.959,11.667,7.573a25.063,25.063,0,0,1-14.293,6.413,36.929,36.929,0,0,1-17.773-2.354A46.053,46.053,0,0,1,13.4,56.583,46.053,46.053,0,0,1,2.616,40.038,36.929,36.929,0,0,1,.263,22.266,25.063,25.063,0,0,1,6.676,7.972q.614,3.07,7.573,11.667A246.942,246.942,0,0,0,31.476,38.5Z" transform="translate(0.01 0.01)" fill="#191919"/>
  </g>
</svg>
