<svg width="279" height="89" viewBox="0 0 279 89" fill="none" xmlns="http://www.w3.org/2000/svg">
<g clip-path="url(#clip0)">
<path d="M54.7 26.8C54.2 26.1 53.4 25.6 52.4 25.3V24.5C53.4 24.2 54.2 23.7 54.7 23C55.2 22.3 55.5 21.4 55.5 20.3C55.5 19.7 55.5 19.2 55.5 18.5C55.5 17.9 55.5 17.2 55.5 16.4C55.5 14.3 54.9 12.8 53.8 11.9C52.7 11 50.9 10.5 48.4 10.5H48V14H48.4C50.2 14 51.1 14.7 51.1 16.2C51.1 17.5 51.1 18.8 51.1 20.1C51.1 22 50.2 23 48.4 23H48V26.5H48.4C49.4 26.5 50.1 26.7 50.5 27.2C50.9 27.7 51.2 28.5 51.2 29.6C51.2 30.9 51.2 32.2 51.2 33.4C51.2 35 50.3 35.8 48.5 35.8H48.1V39.3H48.5C51 39.3 52.8 38.8 53.9 37.9C55 37 55.6 35.5 55.7 33.4C55.8 32 55.8 30.7 55.7 29.3C55.4 28.5 55.1 27.5 54.7 26.8Z" fill="white"/>
<path d="M45.9 10.7H41.4V39.5H45.9V10.7Z" fill="white"/>
<path d="M63.4 10.7H58.9V39.5H63.4V10.7Z" fill="white"/>
<path d="M72.8 23.3C72.9 22.1 72.9 21 72.9 20C72.9 19 72.9 17.8 72.8 16.5C72.7 14.4 72.1 12.9 71 12C69.9 11.1 68.1 10.6 65.6 10.6H65.3V14.1H65.6C67.3 14.1 68.2 14.8 68.3 16.3C68.4 18.7 68.4 21.1 68.3 23.5C68.2 25 67.3 25.7 65.6 25.7H65.1V29.1H65.7L68.8 39.5H73.5L69.9 28.4C71.8 27.7 72.7 26 72.8 23.3Z" fill="white"/>
<path d="M85.7 10.7C85.8 14.5 85.8 18.5 85.8 22.6C85.8 26.7 85.8 30.7 85.7 34.5C85.7 35.6 85.2 36.3 84.1 36.5V39.8C86.2 39.7 87.8 39.2 88.7 38.2C89.6 37.3 90.1 35.8 90.1 33.8C90.2 26.1 90.2 18.4 90.1 10.7H85.7V10.7Z" fill="white"/>
<path d="M80.5 34.6C80.5 30.8 80.4001 26.8 80.4001 22.7C80.4001 18.6 80.4 14.6 80.5 10.8H76C75.9 18.5 75.9 26.2 76 33.9C76 35.9 76.5 37.3 77.5 38.3C78.4 39.2 80 39.8 82.1 39.9V36.6C81.1 36.3 80.5 35.7 80.5 34.6Z" fill="white"/>
<path d="M96.8001 15.7H93.7001V39.5H98.1001L97.7001 29.6L96.8001 15.7Z" fill="white"/>
<path d="M105.3 20.2L106.4 34.5H109.5V10.7H105.1L105.3 20.2Z" fill="white"/>
<path d="M102.7 19.9L100.7 10.7H93.7001V14.2H98.0001L100.1 29.6L102.2 39.5H109.5V36.1H105.3L102.7 19.9Z" fill="white"/>
<path d="M125.8 12C124.9 11.1 123.3 10.5 121.2 10.4V13.7C122.2 13.9 122.8 14.6 122.8 15.7C122.9 17.7 122.9 19.7 122.9 21.9C122.9 24.1 122.9 26.2 122.9 28.4C122.9 30.6 122.8 32.6 122.7 34.6C122.7 35.7 122.1 36.4 121.1 36.6V39.9C123.2 39.8 124.8 39.3 125.7 38.3C126.6 37.4 127.1 35.9 127.2 33.9C127.4 28.1 127.4 22.3 127.2 16.4C127.3 14.4 126.8 12.9 125.8 12Z" fill="white"/>
<path d="M113.1 16.4C113 22.2 113 28.1 113.1 33.9C113.2 35.9 113.7 37.4 114.6 38.3C115.6 39.2 117.1 39.7 119.2 39.9V36.6C118.1 36.4 117.6 35.7 117.5 34.6C117.4 32.6 117.4 30.5 117.4 28.4C117.4 26.2 117.4 24.1 117.4 21.9C117.4 19.7 117.5 17.7 117.6 15.7C117.6 14.6 118.2 13.9 119.3 13.7V10.4C117.2 10.5 115.6 11 114.7 12C113.7 12.9 113.2 14.4 113.1 16.4Z" fill="white"/>
<path d="M144.4 10.7H139.9V39.5H144.4V10.7Z" fill="white"/>
<path d="M153.1 26.8C152.6 26.1 151.8 25.6 150.8 25.3V24.5C151.8 24.2 152.6 23.7 153.1 23C153.6 22.3 153.9 21.4 153.9 20.3C153.9 19.7 153.9 19.2 153.9 18.5C153.9 17.9 153.9 17.2 153.9 16.4C153.9 14.3 153.3 12.8 152.2 11.9C151.1 11 149.2 10.5 146.8 10.5H146.4V14H146.8C148.6 14 149.5 14.7 149.5 16.2C149.5 17.5 149.5 18.8 149.5 20.1C149.5 22 148.6 23 146.8 23H146.4V26.5H146.8C147.8 26.5 148.5 26.7 148.9 27.2C149.3 27.7 149.6 28.5 149.6 29.6C149.6 30.9 149.6 32.2 149.6 33.4C149.6 35 148.7 35.8 146.9 35.8H146.5V39.3H146.9C149.4 39.3 151.2 38.8 152.3 37.9C153.4 37 154 35.5 154.1 33.4C154.2 32 154.2 30.7 154.1 29.3C153.9 28.5 153.6 27.5 153.1 26.8Z" fill="white"/>
<path d="M169.9 12C169 11.1 167.4 10.5 165.3 10.4V13.7C166.3 13.9 166.9 14.6 166.9 15.7C167 17.7 167 19.7 167 21.9C167 24.1 167 26.2 167 28.4C167 30.6 166.9 32.6 166.8 34.6C166.8 35.7 166.2 36.4 165.2 36.6V39.9C167.3 39.8 168.9 39.3 169.8 38.3C170.7 37.4 171.2 35.9 171.3 33.9C171.5 28.1 171.5 22.3 171.3 16.4C171.3 14.4 170.8 12.9 169.9 12Z" fill="white"/>
<path d="M157.2 16.4C157.1 22.2 157.1 28.1 157.2 33.9C157.3 35.9 157.8 37.4 158.7 38.3C159.7 39.2 161.2 39.7 163.3 39.9V36.6C162.2 36.4 161.7 35.7 161.6 34.6C161.5 32.6 161.5 30.5 161.5 28.4C161.5 26.2 161.5 24.1 161.5 21.9C161.5 19.7 161.6 17.7 161.7 15.7C161.7 14.6 162.3 13.9 163.4 13.7V10.4C161.3 10.5 159.7 11 158.8 12C157.8 12.9 157.3 14.4 157.2 16.4Z" fill="white"/>
<path d="M179.6 10.7H175.1V39.5H179.6V10.7Z" fill="white"/>
<path d="M189 23.3C189.1 22.1 189.1 21 189.1 20C189.1 19 189.1 17.8 189 16.5C188.9 14.4 188.3 12.9 187.2 12C186.1 11.1 184.3 10.6 181.8 10.6H181.5V14.1H181.8C183.5 14.1 184.4 14.8 184.5 16.3C184.6 18.7 184.6 21.1 184.5 23.5C184.4 25 183.5 25.7 181.8 25.7H181.3V29.1H181.9L185 39.5H189.7L186.1 28.4C187.9 27.7 188.9 26 189 23.3Z" fill="white"/>
<path d="M201.9 15.7C201.9 16.5 202 17.4 202 18.4C202 19.4 202 20.3 201.9 21.1H206.4C206.5 19.5 206.5 18 206.4 16.4C206.3 14.4 205.7 13 204.8 12.1C203.9 11.2 202.4 10.6 200.4 10.5V13.8C201.3 14 201.8 14.6 201.9 15.7Z" fill="white"/>
<path d="M192.3 16.6C192.3 18.3 192.2 20.2 192.2 22.2C192.2 24.2 192.2 26.2 192.2 28.2C192.2 30.2 192.3 32.1 192.3 33.9C192.4 35.9 192.9 37.4 193.8 38.3C194.7 39.2 196.3 39.8 198.4 39.9V36.6C197.4 36.4 196.8 35.7 196.8 34.6C196.7 31.6 196.6 28.5 196.6 25.2C196.6 21.9 196.7 18.8 196.8 15.8C196.9 14.7 197.4 14.1 198.4 13.8V10.5C196.3 10.6 194.7 11.1 193.8 12.1C192.9 13.1 192.4 14.5 192.3 16.6Z" fill="white"/>
<path d="M199.6 26.4V29.8H202.1C202.1 30.5 202.1 31.3 202.1 32.1C202.1 32.9 202.1 33.8 202.1 34.4C202 35.5 201.4 36.2 200.3 36.4V39.7C202.4 39.6 203.9 39.1 204.9 38.1C205.9 37.2 206.4 35.7 206.5 33.7C206.6 32.3 206.6 31 206.6 29.7C206.6 28.4 206.6 27.3 206.5 26.3H199.6V26.4Z" fill="white"/>
<path d="M221.4 23.2H216.3V26.7H221.4V23.2Z" fill="white"/>
<path d="M221.8 10.7H216.3V14.2H221.8V10.7Z" fill="white"/>
<path d="M221.8 36.1H216.3V39.6H221.8V36.1Z" fill="white"/>
<path d="M214.4 10.7H209.9V39.5H214.4V10.7Z" fill="white"/>
<path d="M233.7 15.7C233.7 16.6 233.8 17.5 233.7 18.4C233.7 19.3 233.7 20.2 233.6 21.1H237.9C237.9 20.2 238 19.4 238 18.5C238 17.6 238 16.9 238 16.3C237.9 14.3 237.4 12.9 236.5 12C235.6 11.1 234.1 10.5 232.1 10.4V13.7C233.1 14 233.6 14.6 233.7 15.7Z" fill="white"/>
<path d="M228.4 34.5C228.3 33.6 228.3 32.7 228.3 31.8C228.3 30.8 228.3 29.9 228.4 28.9H224.2C224.1 29.8 224.1 30.6 224.1 31.4C224.1 32.2 224.1 33 224.1 33.8C224.2 35.8 224.7 37.3 225.6 38.2C226.5 39.1 228 39.7 230.2 39.8V36.5C229.1 36.3 228.5 35.7 228.4 34.5Z" fill="white"/>
<path d="M238.2 30C238.1 28.3 237.7 26.9 237.1 25.8C236.4 24.8 235.1 24 233.1 23.6L230.6 23.1C229.8 22.9 229.3 22.6 229 22.2C228.7 21.7 228.5 21.1 228.5 20.3C228.4 19.5 228.4 18.8 228.4 18C228.4 17.2 228.4 16.4 228.5 15.7C228.6 14.6 229.2 13.9 230.2 13.7V10.4C228 10.5 226.5 11 225.6 12C224.7 12.9 224.2 14.4 224.1 16.4C224.1 17.1 224.1 17.7 224.1 18.4C224.1 19.1 224.1 19.7 224.1 20.4C224.2 22.1 224.5 23.5 225.2 24.5C225.9 25.5 227.2 26.2 229 26.6L231.8 27.2C232.5 27.4 233 27.7 233.3 28.2C233.6 28.7 233.7 29.3 233.8 30C233.9 30.9 233.9 31.6 233.9 32.3C233.9 33 233.9 33.7 233.8 34.5C233.7 35.6 233.2 36.3 232.2 36.5V39.8C234.3 39.7 235.8 39.2 236.7 38.2C237.6 37.3 238.1 35.8 238.2 33.8C238.2 33.1 238.2 32.5 238.3 31.9C238.2 31.4 238.2 30.8 238.2 30Z" fill="white"/>
<path d="M125.5 62.8H122V88.4H125.5V62.8Z" fill="#1ED9D9"/>
<path d="M131.5 64.1C130.6 63.3 129.2 62.8 127.3 62.8H127V65.9H127.3C128.7 65.9 129.3 66.5 129.4 67.8C129.5 73 129.5 78.2 129.4 83.4C129.4 84.7 128.7 85.4 127.3 85.4H127V88.5H127.3C129.2 88.5 130.6 88.1 131.5 87.2C132.4 86.3 132.8 85 132.8 83C132.8 81.2 132.9 79.6 132.9 78C132.9 76.4 132.9 74.8 132.9 73.3C132.9 71.7 132.9 70.1 132.8 68.3C132.8 66.3 132.4 64.9 131.5 64.1Z" fill="#1ED9D9"/>
<path d="M139.2 62.8H135.7V88.4H139.2V62.8Z" fill="#1ED9D9"/>
<path d="M144.5 73.9H140.6V77H144.5V73.9Z" fill="#1ED9D9"/>
<path d="M144.8 62.8H140.6V65.9H144.8V62.8Z" fill="#1ED9D9"/>
<path d="M144.8 85.4H140.6V88.5H144.8V85.4Z" fill="#1ED9D9"/>
<path d="M154.9 62.8L153.3 76.4L152.7 85.4H149L149.5 88.4H155.2L158.5 62.8H154.9Z" fill="#1ED9D9"/>
<path d="M151.3 76.4L149.7 62.8H146.1L148.8 84.3H151.9L151.3 76.4Z" fill="#1ED9D9"/>
<path d="M279 52H0V0H279V52ZM4 48H275V4H4V48Z" fill="#1ED9D9"/>
</g>
<defs>
<clipPath id="clip0">
<rect width="279" height="88.4" fill="white"/>
</clipPath>
</defs>
</svg>
